<?xml version="1.0" encoding="UTF-8" standalone="no"?>
<svg width="24px" height="28px" viewBox="0 0 24 28" version="1.1" xmlns="http://www.w3.org/2000/svg" xmlns:xlink="http://www.w3.org/1999/xlink" xmlns:sketch="http://www.bohemiancoding.com/sketch/ns">
    <!-- Generator: Sketch 3.3.3 (12081) - http://www.bohemiancoding.com/sketch -->
    <title>ic_add_shopping_cart_black_24px</title>
    <desc>Created with Sketch.</desc>
    <defs></defs>
    <g id="Page-1" stroke="none" stroke-width="1" fill="none" fill-rule="evenodd" sketch:type="MSPage">
        <g id="Artboard-1" sketch:type="MSArtboardGroup" transform="translate(-35.000000, -17.000000)">
            <g id="ic_add_shopping_cart_black_24px" sketch:type="MSLayerGroup" transform="translate(46.000000, 32.500000) scale(-1, 1) translate(-46.000000, -32.500000) translate(34.000000, 17.000000)">
                <path d="M0,7 L24,7 L24,31 L0,31 L0,7 Z M18.31,13 L15.55,18 L18.31,13 Z" id="Shape" sketch:type="MSShapeGroup"></path>
                <path d="M8,25 C6.9,25 6.01,25.9 6.01,27 C6.01,28.1 6.9,29 8,29 C9.1,29 10,28.1 10,27 C10,25.9 9.1,25 8,25 L8,25 Z M18,25 C16.9,25 16.01,25.9 16.01,27 C16.01,28.1 16.9,29 18,29 C19.1,29 20,28.1 20,27 C20,25.9 19.1,25 18,25 L18,25 Z M8.17,21.75 L8.2,21.63 L9.1,20 L16.55,20 C17.3,20 17.96,19.59 18.3,18.97 L22.16,11.96 L20.42,11 L20.41,11 L19.31,13 L16.55,18 L9.53,18 L9.4,17.73 L7.16,13 L6.21,11 L5.27,9 L2,9 L2,11 L4,11 L7.6,18.59 L6.25,21.04 C6.09,21.32 6,21.65 6,22 C6,23.1 6.9,24 8,24 L20,24 L20,22 L8.42,22 C8.29,22 8.17,21.89 8.17,21.75 Z M13.6,11.2 L17.8,7 L19.2,8.4 L13.6,14 L1.6,2 L3,0.6 L13.6,11.2 Z" id="Shape" fill="#000000" sketch:type="MSShapeGroup"></path>
            </g>
        </g>
    </g>
</svg>